# xmcd
#
# Track frame offsets:
# 151
# 16916
# 39184
# 59513
# 90681
# 110386
# 132651
# 154716
# 176108
# 202081
# 220832
# 239263
# 266198
# 283587
# 304298
#
# Disc length: 4386 seconds
#
# Revision: 2
# Processed by: cddbd v1.4PL0 Copyright (c) Steve Scherf et al.
# Submitted via: Axialis_AX_CDPlayer 2.6
#
DISCID=de11200f
DTITLE=Shaan - Bhool Ja
DYEAR=2002
DGENRE=New Age
TTITLE0=Bool Ja
TTITLE1=Tanha Dil
TTITLE2=Yoh Pehli baar
TTITLE3=Dil Keya kare
TTITLE4=mana janab
TTITLE5=tunhe mujhe pehchana nahi
TTITLE6=musafor hoon yaro
TTITLE7=gum sum hoon kyon
TTITLE8=hum bewafa
TTITLE9=musu musu
TTITLE10=is ko pyar kehta hai
TTITLE11=ek tukra chand ka
TTITLE12=dekha tumko jaab se
TTITLE13=dharti amber
TTITLE14=amber se
EXTD=YEAR: 2002
EXTT0=
EXTT1=
EXTT2=
EXTT3=
EXTT4=
EXTT5=
EXTT6=
EXTT7=
EXTT8=
EXTT9=
EXTT10=
EXTT11=
EXTT12=
EXTT13=
EXTT14=
PLAYORDER=
